<?xml version="1.0" encoding="UTF-8" standalone="no"?>
<!-- Page 6 -->

<svg
   xmlns:dc="http://purl.org/dc/elements/1.1/"
   xmlns:cc="http://creativecommons.org/ns#"
   xmlns:rdf="http://www.w3.org/1999/02/22-rdf-syntax-ns#"
   xmlns:svg="http://www.w3.org/2000/svg"
   xmlns="http://www.w3.org/2000/svg"
   xmlns:sodipodi="http://sodipodi.sourceforge.net/DTD/sodipodi-0.dtd"
   xmlns:inkscape="http://www.inkscape.org/namespaces/inkscape"
   x="0"
   y="0"
   width="707.09998"
   height="200"
   viewBox="0 0 707.09996 200"
   version="1.1"
   style="display:block"
   id="svg885"
   sodipodi:docname="logo_OCHA_coreui.svg"
   inkscape:version="0.92.4 (5da689c313, 2019-01-14)">
  <metadata
     id="metadata889">
    <rdf:RDF>
      <cc:Work
         rdf:about="">
        <dc:format>image/svg+xml</dc:format>
        <dc:type
           rdf:resource="http://purl.org/dc/dcmitype/StillImage" />
        <dc:title></dc:title>
      </cc:Work>
    </rdf:RDF>
  </metadata>
  <sodipodi:namedview
     pagecolor="#ffffff"
     bordercolor="#666666"
     borderopacity="1"
     objecttolerance="10"
     gridtolerance="10"
     guidetolerance="10"
     inkscape:pageopacity="0"
     inkscape:pageshadow="2"
     inkscape:window-width="1920"
     inkscape:window-height="1017"
     id="namedview887"
     showgrid="true"
     inkscape:zoom="0.51925192"
     inkscape:cx="-483.98852"
     inkscape:cy="9.6696083"
     inkscape:window-x="-8"
     inkscape:window-y="-8"
     inkscape:window-maximized="1"
     inkscape:current-layer="svg885"
     fit-margin-top="0.1"
     fit-margin-left="0.1"
     fit-margin-right="0.1"
     fit-margin-bottom="0.1" />
  <defs
     id="defs7">
    <style
       type="text/css"
       id="style5"><![CDATA[
text { white-space: pre; }
path, image { pointer-events: none; }

.s1_6{
font-size: 15.28px;
font-family: RobotoSlab-Bold_ph;
fill: #FFFFFF;
}

.g0_6{
fill: #5091CD;
}
.g1_6{
fill: #FFFFFF;
}

]]></style>
  </defs>
  <g
     id="g5138"
     transform="matrix(1.5681751,0,0,1.5681751,-150.56637,-933.42476)">
    <path
       d="m 243,660.7 c 0,-21.7 15.9,-38.5 38.2,-38.5 22.4,0 38.3,16.8 38.3,38.5 0,21.8 -15.9,38.6 -38.3,38.6 -22.3,0 -38.2,-16.8 -38.2,-38.6 m 65.9,0 c 0,-16 -10.9,-29.2 -27.7,-29.2 -16.8,0 -27.6,13.2 -27.6,29.2 0,16.1 10.8,29.3 27.6,29.3 16.8,0 27.7,-13.2 27.7,-29.3 z"
       class="g0_6"
       id="path665"
       inkscape:connector-curvature="0"
       style="fill:#5091cd" />
    <path
       d="m 384.9,639.9 c -4.1,-5.4 -11,-8.4 -17.7,-8.4 -16.5,0 -27.4,13.2 -27.4,29.8 0,15.5 10.3,28.7 27.4,28.7 8.4,0 14.8,-3.8 19.2,-9.9 l 8.4,6.3 c -2.2,3 -11,12.9 -27.8,12.9 -23.4,0 -37.8,-19.5 -37.8,-38 0,-22.8 15.7,-39.1 38.3,-39.1 9.6,0 19.8,3.6 25.7,11.4 z"
       class="g0_6"
       id="path667"
       inkscape:connector-curvature="0"
       style="fill:#5091cd" />
    <path
       d="m 406.8,624 h 9.9 v 30.5 h 38.1 V 624 h 9.9 v 73.4 h -9.9 v -33.6 h -38.1 v 33.6 h -9.9 z"
       class="g0_6"
       id="path669"
       inkscape:connector-curvature="0"
       style="fill:#5091cd" />
    <path
       d="m 506.6,624 h 9 l 31.4,73.4 h -11.6 l -7.3,-18.1 h -35 l -7.2,18.1 h -11.6 z m 17.8,46.6 -13.6,-33.7 h -0.3 l -13.8,33.7 z"
       class="g0_6"
       id="path671"
       inkscape:connector-curvature="0"
       style="fill:#5091cd" />
    <path
       d="m 149.1,649.2 c 0,-5.6 4.6,-10.1 10.2,-10.1 5.6,0 10.1,4.5 10.1,10.1 0,5.6 -4.5,10.2 -10.1,10.2 v -1.3 c 4.9,0 8.9,-4 8.9,-8.9 0,-4.9 -4,-8.8 -8.9,-8.8 -4.9,0 -8.9,3.9 -8.9,8.8 0,4.9 4,8.9 8.9,8.9 v 1.3 c -5.6,0 -10.2,-4.6 -10.2,-10.2 z"
       class="g0_6"
       id="path673"
       inkscape:connector-curvature="0"
       style="fill:#5091cd" />
    <path
       d="m 141,649.2 c 0,-10 8.2,-18.2 18.3,-18.2 10,0 18.2,8.2 18.2,18.2 0,10.1 -8.2,18.3 -18.2,18.3 v -1.3 c 9.3,0 16.9,-7.6 16.9,-17 0,-9.3 -7.6,-16.9 -16.9,-16.9 -9.4,0 -17,7.6 -17,16.9 0,9.4 7.6,17 17,17 v 1.3 c -10.1,0 -18.3,-8.2 -18.3,-18.3 z"
       class="g0_6"
       id="path675"
       inkscape:connector-curvature="0"
       style="fill:#5091cd" />
    <path
       d="m 132.2,649.2 c 0,-14.9 12.1,-27 27.1,-27 14.9,0 27,12.1 27,27 0,14.9 -12.1,27.1 -27,27.1 V 675 c 14.2,-0.1 25.7,-11.6 25.7,-25.8 0,-14.2 -11.5,-25.7 -25.7,-25.7 -14.2,0 -25.8,11.5 -25.8,25.7 0,14.2 11.6,25.7 25.8,25.8 v 1.3 c -15,0 -27.1,-12.1 -27.1,-27.1 z"
       class="g0_6"
       id="path677"
       inkscape:connector-curvature="0"
       style="fill:#5091cd" />
    <path
       d="m 123.8,649.2 c 0,-19.6 15.9,-35.5 35.5,-35.5 19.6,0 35.5,15.9 35.5,35.5 0,19.6 -15.9,35.5 -35.5,35.5 v -1.3 c 18.9,0 34.2,-15.3 34.2,-34.2 0,-18.9 -15.3,-34.1 -34.2,-34.2 -18.9,0.1 -34.2,15.3 -34.2,34.2 0,18.9 15.3,34.2 34.2,34.2 v 1.3 c -19.6,0 -35.5,-15.9 -35.5,-35.5 z"
       class="g0_6"
       id="path679"
       inkscape:connector-curvature="0"
       style="fill:#5091cd" />
    <path
       d="m 114.5,649.2 c 0,-24.7 20.1,-44.8 44.8,-44.8 24.7,0 44.8,20.1 44.8,44.8 0,24.8 -20.1,44.8 -44.8,44.8 v -1.3 c 24,0 43.4,-19.4 43.5,-43.5 -0.1,-24 -19.5,-43.5 -43.5,-43.5 -24,0 -43.5,19.5 -43.5,43.5 0,24.1 19.5,43.5 43.5,43.5 v 1.3 c -24.7,0 -44.8,-20 -44.8,-44.8 z"
       class="g0_6"
       id="path681"
       inkscape:connector-curvature="0"
       style="fill:#5091cd" />
    <path
       d="m 158.6,639.7 h 1.3 v -34.6 h -1.3 z"
       class="g0_6"
       id="path683"
       inkscape:connector-curvature="0"
       style="fill:#5091cd" />
    <path
       d="m 127.6,618.5 0.9,-0.9 24.5,24.4 -0.9,0.9 z"
       class="g0_6"
       id="path685"
       inkscape:connector-curvature="0"
       style="fill:#5091cd" />
    <path
       d="m 115.1,649.9 h 34.7 v -1.3 h -34.7 z"
       class="g0_6"
       id="path687"
       inkscape:connector-curvature="0"
       style="fill:#5091cd" />
    <path
       d="m 127.6,679.9 24.5,-24.4 0.9,0.9 -24.5,24.5 z"
       class="g0_6"
       id="path689"
       inkscape:connector-curvature="0"
       style="fill:#5091cd" />
    <path
       d="m 158.6,693.4 h 1.3 v -34.7 h -1.3 z"
       class="g0_6"
       id="path691"
       inkscape:connector-curvature="0"
       style="fill:#5091cd" />
    <path
       d="m 165.6,656.4 0.9,-0.9 24.4,24.4 -0.9,1 z"
       class="g0_6"
       id="path693"
       inkscape:connector-curvature="0"
       style="fill:#5091cd" />
    <path
       d="m 168.8,649.9 h 34.6 v -1.3 h -34.6 z"
       class="g0_6"
       id="path695"
       inkscape:connector-curvature="0"
       style="fill:#5091cd" />
    <path
       d="m 165.6,642 24.4,-24.4 0.9,0.9 -24.4,24.4 z"
       class="g0_6"
       id="path697"
       inkscape:connector-curvature="0"
       style="fill:#5091cd" />
    <path
       d="m 152.5,652.1 c 0.4,-0.1 0.3,0.3 0.4,0.5 0,0 0.1,0 0.2,0 0.6,-0.6 0.9,-1.4 1.1,-2.2 0,-0.1 0.2,-0.2 0.2,-0.2 -0.1,-0.4 -0.5,-0.5 -0.7,-0.9 -0.3,0.6 -0.9,0.1 -1.3,0.4 0,0 0,0.2 0.1,0.2 0.1,0.1 0.4,0 0.4,0.2 0.1,0.1 0.1,0.4 0,0.6 -0.1,0 -0.2,0 -0.2,0 -0.2,-0.5 -0.6,-0.4 -1,-0.4 0.2,0.1 -0.1,0.1 -0.1,0.2 -0.5,-0.2 -1.1,0.1 -1.6,0.2 -0.2,0 -0.4,-0.2 -0.6,-0.3 -0.2,0.2 -0.4,0.6 -0.7,0.5 -0.1,0 -0.3,-0.3 -0.2,-0.4 0.3,-0.1 0.6,-0.4 0.8,-0.7 0.1,-0.2 0,-0.5 0.1,-0.8 0.2,-0.3 0.4,-0.6 0.7,-0.6 0.4,0 1,0.3 1.3,0 0.1,-0.1 0.3,0.2 0.5,0.3 0,0 -0.1,0.1 -0.1,0.2 -0.2,0.2 -0.5,0.2 -0.7,0.5 -0.1,0.2 0,0.4 0.2,0.5 0.3,0.1 0.4,-0.3 0.5,-0.4 0.1,-0.2 0.3,-0.1 0.4,0 0,-0.1 0,-0.2 0,-0.2 0.3,-0.1 0.7,0 1,0 0.4,0 0.2,-0.8 0.2,-1.3 0,-0.1 0,-0.2 0,-0.3 q 0,-0.1 0,-0.2 c 0.1,-0.2 0.6,-0.3 0.7,0 0,0 0,0.1 0,0.2 q 0.1,0.2 0.3,0.2 0.1,-0.1 0.1,-0.2 c 0.1,-0.1 0.1,-0.4 0.1,-0.5 0.2,-0.1 0.4,0.3 0.6,0.3 0.3,0.1 0.6,0.1 0.7,-0.1 0.2,-0.1 0.2,-0.3 0.1,-0.5 -0.1,-0.1 -0.2,-0.1 -0.2,0 -0.3,0.2 -0.6,0.1 -0.8,0.1 -0.2,0 -0.3,-0.2 -0.5,-0.4 -0.2,-0.1 -0.5,0.2 -0.7,0.1 -0.3,-0.1 -0.4,-0.4 -0.2,-0.6 0,-0.1 0.2,-0.2 0.3,-0.3 0.3,-0.1 0.6,-0.1 0.8,-0.3 0.1,-0.3 0.2,-0.5 0.2,-0.8 0,-0.1 0.1,-0.1 0.2,-0.1 0.4,-0.2 0.7,-0.1 1,-0.2 0.4,-0.1 0.6,-0.4 0.9,-0.7 0.2,0 0.3,-0.1 0.5,-0.2 0.1,0 0.2,-0.2 0.2,-0.2 0.1,-0.6 -0.1,-1.1 0,-1.7 0,-0.1 0.3,-0.2 0.2,-0.4 -0.1,-0.1 -0.3,0 -0.4,0 -0.1,-0.1 -0.2,-0.4 0,-0.5 0.1,-0.1 0.4,0 0.5,-0.2 0.2,-0.3 0.1,-0.8 -0.2,-0.9 -0.3,-0.1 -0.6,0.2 -1,0.1 0.1,0.1 -0.1,0.2 -0.2,0.2 -0.4,0.1 -0.4,-0.4 -0.3,-0.7 q 0,-0.1 0,-0.1 c 0.2,0 0.2,-0.1 0.2,-0.2 -0.1,0 -0.2,0 -0.3,0 -0.4,0.2 -0.6,0.6 -0.9,0.8 -0.1,0 -0.1,0.1 -0.1,0.1 q 0.1,0.1 0.2,0.1 c 0,0.3 0.1,0.7 -0.4,0.6 q 0,-0.1 0,-0.2 c -0.1,0 -0.4,-0.1 -0.4,0 -0.1,0.3 0.5,0.4 0.3,0.7 -0.2,0.4 -0.7,0.5 -1.1,0.7 -0.9,0.3 -1.9,-0.1 -2.8,0.1 -0.5,0.1 -1,0 -1.6,-0.1 -0.3,-0.1 -0.4,0.3 -0.6,0.5 0,0 0,-0.1 -0.1,-0.1 0,-0.2 0.1,-0.3 0,-0.5 0,-0.2 -0.2,-0.1 -0.3,-0.3 -0.6,-1.1 -2.1,-1 -3.3,-0.8 -0.2,0 -0.3,0.2 -0.4,0.4 -0.2,0.2 -0.5,-0.1 -0.8,0.1 -0.1,0.1 -0.2,0.2 -0.3,0.3 -0.3,0.1 -0.7,-0.3 -1,-0.1 -0.2,0.2 -0.4,0.2 -0.6,0.3 -0.1,0 -0.1,0.2 -0.1,0.3 0,0.1 -0.2,0.1 -0.3,0.1 -0.3,0.1 -0.7,-0.1 -0.8,0.4 h 0.1 c 0.1,0.4 0,0.8 -0.4,0.9 -0.4,0.2 -0.8,0.1 -1.2,0.3 -0.2,0.1 -0.5,0.2 -0.5,0.4 -0.7,1.1 -1.3,2.3 -1.3,3.5 v 0.2 c 0,0 0.1,0.1 0.1,0.2 -0.6,1.3 -1,1.9 -1.7,3.2 -0.3,0.5 -0.6,1.7 -0.1,2.1 0.3,0.3 -0.2,0.8 -0.5,0.8 -0.5,0 -1.2,-0.1 -1.3,-0.6 -0.1,-0.3 -0.5,-0.3 -0.8,-0.3 l -0.2,-0.1 c -0.4,0 -0.7,0 -1.1,0.1 -0.5,0.1 -0.5,0.7 -0.8,1.2 -0.2,0.4 -0.8,0.3 -1,0.6 -0.1,0.2 0.1,0.5 0,0.7 -0.1,0.1 -0.3,0.1 -0.4,0.3 0,0.1 0,0.3 -0.1,0.3 -0.1,0.6 -0.2,1 -0.1,1.5 0,0.2 0,0.3 0,0.4 0.2,0.5 0,1 -0.2,1.4 -0.4,0.5 -1,0.5 -1.5,0.7 -0.3,0.1 -0.5,-0.2 -0.8,-0.1 -0.7,0.1 -1.3,-0.1 -1.9,0.1 0,0 -0.1,0.1 -0.2,0.1 -0.3,0.1 -0.4,-0.2 -0.6,-0.4 -0.1,-0.2 -0.2,-0.5 -0.3,-0.6 -0.4,-0.1 -0.9,0.1 -1.2,0.4 0.2,0 0,0.2 0.2,0.2 -0.4,0 -0.7,0.4 -1,0.5 -0.4,0.2 -0.5,-0.5 -0.6,-0.9 0,-0.2 -0.4,-0.3 -0.7,-0.2 0,0.1 -0.1,0.1 -0.1,0.2 -0.1,0 -0.1,-0.1 -0.2,0 -0.3,0.3 0.2,0.3 0.3,0.5 0.1,0 0,0.1 -0.1,0.2 -0.1,0.1 -0.4,-0.1 -0.4,0 0,0.2 -0.2,0.3 -0.3,0.3 0,0 -0.1,0 0,0.1 0,0 0,0.1 0.1,0 -0.2,0.1 -0.3,0.2 -0.4,0.1 -0.2,-0.1 -0.1,-0.3 -0.2,-0.5 0,0 -0.2,0 -0.2,0.1 0,0.3 0.1,0.4 -0.3,0.4 0.1,0.1 -0.1,0.3 0.1,0.3 0.2,0.1 0.4,-0.1 0.5,0 0.3,0.3 0.2,0.7 0.3,1 0,0.1 -0.1,0.1 -0.1,0.1 0.1,0.2 0.1,0.6 -0.1,0.4 -0.4,-0.2 0,-0.6 -0.2,-0.9 0,-0.1 -0.2,0 -0.4,0 0.2,0.4 -0.2,0.9 0.2,1.4 0.2,0.2 -0.5,0.5 -0.2,0.7 0.1,0.1 0.4,0.3 0.6,0.3 0.1,0 0,-0.2 0,-0.3 0,-0.1 0.4,-0.2 0.4,-0.1 0.1,0.1 0.1,0.3 0.1,0.4 -0.1,0 -0.3,0.1 -0.4,0.1 0.1,0.3 -0.1,0.5 -0.1,0.8 0,0.1 0.1,0.2 0.1,0.3 0,0.2 0.4,0 0.5,0.2 0.1,0.1 -0.1,0.3 0,0.5 0,0.2 0.2,0.1 0.3,0.2 0.2,0.1 0.1,0.3 0.1,0.4 0.2,0 0.4,0.2 0.3,0.4 0.2,0 0.2,-0.2 0.2,-0.3 0.4,0 0.2,-0.3 0.3,-0.6 -0.1,0 -0.1,-0.2 -0.3,-0.1 -0.1,-0.2 0,-0.5 -0.1,-0.6 -0.1,-0.2 -0.4,-0.3 -0.4,-0.6 0.3,0.1 0.4,0 0.6,-0.3 0.1,-0.1 0.3,0.1 0.4,0.3 0.1,0 0,0.1 0,0.1 0.3,0 0.3,0.2 0.4,0.3 0.2,0.2 0.2,0.4 0.4,0.5 0.4,0.1 0.7,0.1 1,0 0,-0.1 0,-0.3 0.1,-0.3 0.2,-0.2 0.2,0.1 0.4,0.1 -0.1,0.3 0.1,0.6 0.4,0.8 0,0 0.2,0 0.2,0 0.1,0.1 0.2,0.2 0.3,0.3 0.1,0 0.2,-0.1 0.3,0 0.2,0 0.2,0.1 0.2,0.3 0.1,0 0.1,0.1 0.1,0.1 0.4,0 0.7,0.1 0.8,0.3 0.1,0.4 0.4,0.7 0.6,1.1 0.1,0.2 0.4,0.2 0.4,0.4 q 0.1,0.2 0.2,0.3 c 0.2,0.2 0.5,0.3 0.8,0.3 0.1,0.1 0.3,-0.1 0.5,-0.2 0.1,0 0.2,0.1 0.2,0.1 0.3,0.4 0.4,1.1 0.8,1.3 0.3,0.2 0.3,0.5 0.6,0.5 0.1,0.1 0.3,-0.1 0.4,0 0.1,0.1 0.2,0.3 0.2,0.3 0.4,0.2 0.7,0.4 0.7,0.7 0,0.1 0.1,0.2 0.2,0.2 0.3,0.1 0.5,-0.1 0.7,0 0.2,0.2 0.5,0.3 0.7,0.5 0.1,0.1 0.2,0.2 0.3,0.1 0.1,-0.1 0,-0.3 0.1,-0.4 0.1,-0.1 0.3,-0.1 0.5,-0.1 0.2,-0.1 0.2,-0.5 0.4,-0.5 0.4,-0.1 0.5,0.4 0.8,0.6 0.1,0 0.2,0 0.2,0.1 0.4,0.1 0.2,0.7 0.6,0.8 0.5,0 0.7,0.4 1.1,0.5 0.3,0.1 0.6,0.2 0.9,0.3 0.1,0.1 0.2,0.1 0.3,0 0.2,0 0.4,-0.1 0.5,-0.2 0.4,-0.3 0.9,-0.3 1.3,-0.5 0.1,-0.1 0.2,-0.2 0.3,-0.3 0.7,-0.2 1.4,0.3 2.1,-0.1 0.2,0 0.4,0 0.6,-0.2 0.4,-0.3 0.6,-0.9 0.4,-1.3 -0.3,-0.8 -0.5,-1.5 -1,-2.2 -0.3,-0.3 -0.6,-0.4 -0.9,-0.8 -0.1,0 -0.3,0 -0.4,-0.1 -0.3,-0.1 -0.3,-0.4 -0.2,-0.7 0,-0.1 -0.3,-0.1 -0.4,-0.2 0,-0.2 0,-0.4 0.1,-0.5 0,-0.1 -0.1,-0.2 -0.1,-0.2 -0.4,-0.1 -0.8,-0.2 -1.2,-0.2 -0.1,0 -0.2,-0.1 -0.4,-0.2 0,0 0.1,-0.2 0.1,-0.2 0.2,-0.2 0.5,-0.3 0.8,-0.4 -0.1,-0.2 -0.1,-0.4 0,-0.4 0.1,-0.2 0.1,-0.5 0,-0.6 0,-0.1 0,-0.2 -0.2,-0.2 0.1,-0.4 0.3,-0.7 0.1,-1 -0.3,-0.3 -0.6,-0.5 -0.7,-0.9 0,0 -0.2,-0.1 -0.2,-0.2 0,-0.4 0.2,-0.9 0.1,-1.4 -0.1,-0.2 -0.3,-0.4 -0.1,-0.5 0,-0.1 0.2,-0.2 0.3,-0.2 0.4,-0.1 0.5,-0.4 0.3,-0.6 -0.2,-0.2 -0.5,0 -0.7,-0.1 -0.1,0 -0.1,-0.1 -0.1,-0.2 -0.1,-0.1 0.1,-0.4 -0.1,-0.5 -0.1,-0.1 -0.3,-0.2 -0.3,-0.3 -0.2,-0.3 -0.1,-0.5 0.1,-0.7 -0.1,0 0,-0.2 -0.2,-0.2 0,-0.2 0.2,-0.5 0.1,-0.7 -0.1,-0.2 -0.3,-0.5 -0.5,-0.3 -0.1,0 0,0 -0.1,0 -0.1,0.2 -0.3,0.2 -0.4,0.1 -0.1,-0.1 -0.1,-0.2 0,-0.3 0.1,-0.1 0.3,-0.1 0.4,-0.2 0.2,-0.2 0,-0.5 -0.1,-0.6 -0.3,-0.3 -0.4,-0.6 -0.4,-1 -0.3,0 -0.9,-0.1 -0.9,-0.6 0.1,-0.4 -0.1,-0.9 -0.2,-1.3 -0.1,-0.4 0,-0.7 0.2,-0.9 0,-0.1 0.1,-0.2 0.2,-0.3 0.5,0 1.1,0.1 1.3,-0.4 0.2,-0.3 -0.2,-0.8 0.1,-1 0.5,-0.4 1.3,-0.1 1.9,-0.5 0.1,-0.1 0.1,-0.4 0.1,-0.6 -0.1,-0.2 -0.3,-0.5 -0.4,-0.7 -0.2,-0.3 -0.7,-0.1 -0.8,-0.4 -0.1,-0.2 -0.1,-0.4 0,-0.5 0.1,-0.3 0.3,-0.5 0.5,-0.6 0.6,-0.2 1.1,-0.1 1.6,0.2 0.1,0.1 0.2,0.2 0.3,0.4 q 0.1,0.1 0.1,0.2 c 0.2,0.6 0.4,1.3 0.2,1.8 -0.1,0.2 -0.4,0.3 -0.3,0.6 0.2,-0.1 0.2,0.1 0.2,0.2 0.1,0.4 0.4,1 0,1.2 -0.4,0.3 -0.4,-0.1 -0.9,0 -0.2,0 -0.4,0 -0.3,0.2 0,0.1 0.2,0.4 0.3,0.4 1,0.3 1.6,0.4 2.7,0.6 0.3,0 0.5,0.3 0.8,0.3 0.2,0.1 0.4,0.2 0.6,-0.1 0.1,-0.1 0.3,0 0.4,0.1 0,0.2 0.1,0.2 0.3,0.3 0.3,0.1 0.2,1 0.7,0.7 0.2,-0.1 0.4,0 0.7,0 -0.3,0.4 -0.1,0.7 0.1,1 0.3,0.3 0.6,0.4 0.8,0.6 0.2,0.3 0.6,0.2 0.6,-0.1 0,-0.4 -0.3,-0.8 0.1,-1.1 0.4,0.6 -0.1,1.4 0.3,2 q 0.1,0 0.1,0.1 c 0.2,0.2 0.4,0.5 0.7,0.5 0.2,-0.1 0.3,-0.3 0.3,-0.5 q 0.1,-0.1 0.1,-0.2 c 0,-0.2 0.1,-0.3 0.2,-0.5 0.1,-0.2 0.4,-0.4 0.4,-0.8 0,-0.1 -0.1,-0.2 -0.1,-0.3 0.1,-0.4 0.5,-0.7 0.9,-0.6 0.1,0 0.1,-0.1 0.2,-0.1 0.1,-0.2 0.1,-0.6 0.2,-0.8 0.2,-0.1 0.3,-0.3 0.4,-0.5 0.1,-0.1 0.2,-0.2 0.2,-0.4 0.1,0 0.1,-0.2 0.3,-0.2 z"
       class="g0_6"
       id="path699"
       inkscape:connector-curvature="0"
       style="fill:#5091cd" />
    <path
       d="m 139.7,651.4 c -0.2,-0.2 -0.3,-0.1 -0.4,0 -0.1,0.2 -0.2,0.3 -0.1,0.4 0.1,0.1 0.2,0.3 0.2,0.5 0,0.3 -0.1,0.6 0,0.9 0,0.2 0.3,0.7 0.5,0.4 0.2,-0.3 0.4,-0.8 0.2,-1.2 -0.1,-0.4 0,-0.8 -0.4,-1 z"
       class="g0_6"
       id="path701"
       inkscape:connector-curvature="0"
       style="fill:#5091cd" />
    <path
       d="m 139.1,654 c 0,0.1 0.1,0.2 0.1,0.3 0.1,0.3 0.5,0.2 0.7,0 0,-0.1 0,-0.3 -0.1,-0.4 -0.1,-0.1 -0.3,-0.1 -0.4,-0.1 -0.1,-0.1 -0.2,-0.1 -0.2,-0.1 -0.1,0.1 -0.1,0.2 -0.1,0.3 z"
       class="g0_6"
       id="path703"
       inkscape:connector-curvature="0"
       style="fill:#5091cd" />
    <path
       d="m 139.8,655.2 c 0,-0.4 -0.4,-0.6 -0.7,-0.3 -0.4,0.3 0.1,0.9 0.4,1.3 0,0.1 0.1,0.3 0.1,0.4 0.2,0.1 0.4,0.1 0.5,-0.1 0.1,-0.1 0.2,-0.2 0.2,-0.4 0.2,-0.3 0,-0.9 -0.5,-0.9 z"
       class="g0_6"
       id="path705"
       inkscape:connector-curvature="0"
       style="fill:#5091cd" />
    <path
       d="m 138.9,652.8 c 0,-0.1 -0.1,-0.1 -0.1,-0.1 -0.2,0.1 -0.3,0.2 -0.3,0.4 -0.1,0.3 0,0.5 0.2,0.7 0.1,0.1 0.2,-0.1 0.3,-0.2 0.1,-0.3 -0.1,-0.5 -0.1,-0.8 z"
       class="g0_6"
       id="path707"
       inkscape:connector-curvature="0"
       style="fill:#5091cd" />
    <path
       d="m 140.2,654.6 c 0,0 0.2,-0.1 0.1,-0.3 0.2,0 0.3,0 0.4,-0.1 0.1,-0.1 -0.1,-0.2 -0.1,-0.3 -0.2,0 -0.4,0.2 -0.6,0.4 -0.2,0.2 0.1,0.4 0.2,0.3 z"
       class="g0_6"
       id="path709"
       inkscape:connector-curvature="0"
       style="fill:#5091cd" />
    <path
       d="m 139.9,657.4 c -0.1,0.2 0,0.4 0.1,0.4 0.1,0 0.2,0.1 0.2,0 0.1,-0.2 0.2,-0.3 0.1,-0.5 q -0.1,0 -0.1,0 c -0.2,0 -0.2,0.2 -0.3,0.1 z"
       class="g0_6"
       id="path711"
       inkscape:connector-curvature="0"
       style="fill:#5091cd" />
    <path
       d="m 140.7,659.6 c 0,-0.2 0.2,-0.3 -0.1,-0.5 -0.1,0 -0.2,0 -0.3,0 0,0.2 0.2,0.4 0.4,0.5 z"
       class="g0_6"
       id="path713"
       inkscape:connector-curvature="0"
       style="fill:#5091cd" />
    <path
       d="m 121.3,667.2 c -0.1,0 -0.1,0.3 0,0.4 0.1,0.1 0.3,0.1 0.4,0.1 -0.1,-0.3 -0.1,-0.7 -0.4,-0.5 z"
       class="g0_6"
       id="path715"
       inkscape:connector-curvature="0"
       style="fill:#5091cd" />
    <path
       d="m 123.3,669.2 c -0.2,0.3 0.2,0.7 0.6,0.7 0,-0.1 0.1,-0.3 0,-0.4 -0.2,-0.2 -0.6,-0.4 -0.6,-0.3 z"
       class="g0_6"
       id="path717"
       inkscape:connector-curvature="0"
       style="fill:#5091cd" />
    <path
       d="m 124.2,670.4 c -0.1,0.6 0.1,1 0.7,1.1 0.1,-0.6 -0.2,-1 -0.7,-1.1 z"
       class="g0_6"
       id="path719"
       inkscape:connector-curvature="0"
       style="fill:#5091cd" />
    <path
       d="m 154.9,654.8 c 0.5,-0.1 1.1,-0.3 1.7,-0.3 1.4,0 1.3,-1.7 2,-2.8 0.1,-0.3 -0.1,-0.8 -0.3,-1.1 -0.4,-0.8 -1.9,0.1 -2.2,-0.7 -0.2,-0.4 1,0.3 1.1,-0.4 0,-0.2 -0.1,-0.4 -0.3,-0.5 -0.1,-0.1 -0.5,-0.1 -0.6,0 -0.8,0.6 -0.9,1.7 -1.3,2.4 -0.7,1.3 -2.1,2.2 -2.8,3.7 -0.1,0.2 0,0.4 0.2,0.5 1,0.3 1.7,-0.6 2.5,-0.8 z"
       class="g0_6"
       id="path721"
       inkscape:connector-curvature="0"
       style="fill:#5091cd" />
    <path
       d="m 160.4,651.5 c -0.2,0.1 -0.4,0.2 -0.5,0.3 -0.1,0.2 -0.1,0.5 0,0.7 0,0.1 0.3,0.1 0.4,0 0.2,-0.2 0,-0.4 -0.2,-0.5 0.2,-0.1 0.3,-0.2 0.3,-0.5 z"
       class="g0_6"
       id="path723"
       inkscape:connector-curvature="0"
       style="fill:#5091cd" />
    <path
       d="m 156.3,656.1 c 0.5,0.6 1.6,0.4 1.4,-0.1 -0.1,-0.4 -0.8,-0.7 -1.3,-0.5 -0.3,0.1 0.5,0.4 -0.1,0.6 z"
       class="g0_6"
       id="path725"
       inkscape:connector-curvature="0"
       style="fill:#5091cd" />
    <path
       d="m 157.8,660.1 c 0.4,-0.2 0.2,-0.6 0.2,-1 -0.4,0.2 -0.7,0.5 -0.7,1 0.1,0 0.3,0.1 0.5,0 z"
       class="g0_6"
       id="path727"
       inkscape:connector-curvature="0"
       style="fill:#5091cd" />
    <path
       d="m 163.3,652 c 0.1,0 0.1,-0.3 0,-0.4 -0.1,-0.1 -0.3,0 -0.4,0 -0.2,-0.1 -0.3,-0.3 -0.4,-0.5 0,-0.3 -0.2,-0.5 -0.1,-0.8 -0.4,0.2 -0.4,0.6 -0.2,0.7 0.3,0.5 0.5,1.2 1.1,1 z"
       class="g0_6"
       id="path729"
       inkscape:connector-curvature="0"
       style="fill:#5091cd" />
    <path
       d="m 156,648.3 c -0.2,-0.2 -0.4,0 -0.2,0.2 0,0.1 0.3,0 0.4,0 -0.1,-0.1 -0.1,-0.2 -0.2,-0.2 z"
       class="g0_6"
       id="path731"
       inkscape:connector-curvature="0"
       style="fill:#5091cd" />
    <path
       d="m 120.1,659.9 c 0,-0.1 -0.1,-0.2 -0.2,-0.3 -0.2,-0.1 -0.3,0 -0.4,-0.1 0,0.1 0,0.3 0,0.4 0.1,0.1 0.4,0.2 0.6,0 z"
       class="g0_6"
       id="path733"
       inkscape:connector-curvature="0"
       style="fill:#5091cd" />
    <path
       d="m 122.2,659.9 c 0.2,-0.1 0.5,-0.2 0.3,-0.5 h -0.1 c -0.3,-0.2 -0.8,-0.1 -0.7,0.3 0,0.2 0.2,0.4 0.5,0.2 z"
       class="g0_6"
       id="path735"
       inkscape:connector-curvature="0"
       style="fill:#5091cd" />
    <path
       d="m 156.8,638.5 c 0.1,-0.2 0.5,-0.2 0.4,-0.4 0,-0.1 -0.2,-0.1 -0.3,-0.1 -0.2,0 -0.1,0.2 -0.1,0.4 -0.1,0 -0.2,0 -0.2,0 0,0.1 0.2,0.2 0.2,0.1 z"
       class="g0_6"
       id="path737"
       inkscape:connector-curvature="0"
       style="fill:#5091cd" />
    <path
       d="m 157.9,638.1 c 0.1,0 0.3,-0.2 0.1,-0.3 -0.1,-0.1 -0.3,-0.1 -0.4,-0.1 -0.1,0.2 0.1,0.6 0.3,0.4 z"
       class="g0_6"
       id="path739"
       inkscape:connector-curvature="0"
       style="fill:#5091cd" />
    <path
       d="m 154.6,646.2 c -0.1,0.4 0.5,0.8 0.9,0.6 0.2,-0.2 0.1,-0.6 -0.2,-0.7 -0.2,-0.2 -0.6,-0.1 -0.7,0.1 z"
       class="g0_6"
       id="path741"
       inkscape:connector-curvature="0"
       style="fill:#5091cd" />
    <path
       d="m 155.4,648.6 c 0.1,-0.2 0,-0.3 -0.1,-0.4 -0.2,-0.1 -0.4,-0.1 -0.6,0 0,0 -0.1,-0.1 -0.1,-0.1 -0.1,0.2 0,0.3 0.1,0.3 0.3,0 0.5,0.3 0.7,0.2 z"
       class="g0_6"
       id="path743"
       inkscape:connector-curvature="0"
       style="fill:#5091cd" />
    <path
       d="m 154.4,649.2 c -0.2,0.1 -0.1,0.5 0.1,0.6 0.1,0.1 0.4,0 0.5,-0.2 0.1,-0.2 0.2,-0.5 0,-0.6 -0.2,-0.2 -0.4,0.1 -0.6,0.2 z"
       class="g0_6"
       id="path745"
       inkscape:connector-curvature="0"
       style="fill:#5091cd" />
    <path
       d="m 153.8,648.4 c 0,0.3 -0.2,0.6 -0.1,0.9 0.1,0.2 0.3,0.1 0.3,0 0.1,-0.3 0,-0.6 0.3,-0.7 -0.1,-0.1 -0.2,-0.2 -0.2,0 0,0 0.1,-0.1 0,-0.2 -0.1,-0.1 -0.2,0 -0.3,0 z"
       class="g0_6"
       id="path747"
       inkscape:connector-curvature="0"
       style="fill:#5091cd" />
    <path
       d="m 157.9,665.4 c 0,0 0.1,0 0.1,0 z"
       class="g0_6"
       id="path749"
       inkscape:connector-curvature="0"
       style="fill:#5091cd" />
    <path
       d="m 177.2,669.8 c 0,0 -0.1,0.1 -0.1,0 0,0 0.1,0.1 0.1,0 z"
       class="g0_6"
       id="path751"
       inkscape:connector-curvature="0"
       style="fill:#5091cd" />
    <path
       d="m 159.5,658.2 c -0.1,0 -0.1,-0.1 -0.1,-0.1 -0.1,-0.2 -0.3,-0.2 -0.3,-0.3 -0.1,-0.2 -0.3,0.1 -0.5,0.1 0,0 -0.1,0.1 -0.1,0.2 0.2,0.2 0,0.3 -0.2,0.5 -0.1,0.2 0.2,0.3 0.3,0.5 0.1,0.2 -0.2,0.4 -0.1,0.7 -0.1,0.1 -0.2,0.2 -0.3,0.4 0,0 -0.2,0.2 -0.1,0.3 0.2,0.3 0.6,-0.2 0.8,-0.2 q 0.2,0 0.4,-0.1 c 0.2,-0.2 0.4,-0.3 0.5,-0.5 0,-0.1 -0.4,-0.1 -0.5,-0.2 0.2,-0.4 -0.1,-0.5 0,-1 0,0 0.2,-0.3 0.2,-0.3 z"
       class="g0_6"
       id="path753"
       inkscape:connector-curvature="0"
       style="fill:#5091cd" />
    <path
       d="m 161.3,664 c 0,0 0.1,0 0.2,0 0.2,-0.1 0.2,-0.4 0.1,-0.6 -0.1,-0.1 -0.4,-0.1 -0.4,0.1 0,0.2 0,0.4 0.1,0.5 z"
       class="g0_6"
       id="path755"
       inkscape:connector-curvature="0"
       style="fill:#5091cd" />
    <path
       d="m 161.6,663.1 c 0.2,0 0.1,-0.2 0,-0.3 -0.1,-0.1 -0.2,-0.1 -0.3,-0.1 -0.1,0.2 0,0.5 0.3,0.4 z"
       class="g0_6"
       id="path757"
       inkscape:connector-curvature="0"
       style="fill:#5091cd" />
    <path
       d="m 163.4,664 c 0,0 -0.1,0 -0.1,-0.1 -0.1,0 -0.3,-0.1 -0.5,0 0,0 -0.2,-0.1 -0.3,-0.1 0,0.2 0,0.4 0.2,0.5 0.2,0 0.5,0 0.7,-0.3 z"
       class="g0_6"
       id="path759"
       inkscape:connector-curvature="0"
       style="fill:#5091cd" />
    <path
       d="m 166.5,663.7 c 0.1,0 0.1,-0.3 0,-0.3 -0.3,0 -0.5,0.3 -0.8,0.2 0,0.1 0,0.2 -0.1,0.2 0,0.1 -0.1,0 -0.2,0 0.3,0.4 0.8,0.1 1.1,-0.1 z"
       class="g0_6"
       id="path761"
       inkscape:connector-curvature="0"
       style="fill:#5091cd" />
    <path
       d="m 167.7,662.7 c 0.1,0.4 0.7,0.2 0.7,-0.1 0,-0.2 -0.3,-0.2 -0.4,-0.1 0,0 0,-0.1 0.1,-0.1 -0.2,0.1 -0.4,0.1 -0.4,0.3 z"
       class="g0_6"
       id="path763"
       inkscape:connector-curvature="0"
       style="fill:#5091cd" />
    <path
       d="m 182.3,653 c -0.1,0.2 0.3,0.3 0.5,0.4 0.3,0 0.8,0 0.8,-0.3 0.2,-0.4 -0.3,-0.9 -0.8,-0.8 -0.4,0 -0.4,0.4 -0.5,0.7 z"
       class="g0_6"
       id="path765"
       inkscape:connector-curvature="0"
       style="fill:#5091cd" />
    <path
       d="m 182.3,668.5 c -0.1,-0.1 -0.4,-0.1 -0.4,0 -0.4,1.5 -1.7,3.6 -0.1,4.6 0.7,0.4 1.7,-0.5 1.8,-0.9 0.2,-1.2 0.1,-3 -1.3,-3.7 z"
       class="g0_6"
       id="path767"
       inkscape:connector-curvature="0"
       style="fill:#5091cd" />
    <path
       d="m 177.7,661.8 c -0.2,0.2 -0.2,0.7 0.1,0.7 0.2,0 0.3,-0.1 0.5,-0.2 0.1,-0.1 0.1,-0.3 -0.1,-0.4 -0.1,-0.1 -0.3,-0.1 -0.5,-0.1 z"
       class="g0_6"
       id="path769"
       inkscape:connector-curvature="0"
       style="fill:#5091cd" />
    <path
       d="m 178.8,677.3 c -0.1,0.3 -0.1,0.6 0.2,0.7 0,-0.2 0.4,-0.5 0.1,-0.7 -0.1,-0.1 -0.2,0 -0.3,0 z"
       class="g0_6"
       id="path771"
       inkscape:connector-curvature="0"
       style="fill:#5091cd" />
    <path
       d="m 185.8,641.7 c -0.2,-0.1 -0.3,0 -0.3,0.1 -0.1,0.2 0,0.5 -0.1,0.7 -0.5,1.3 -2.1,2.6 -1.3,4.1 0,0 0.1,0 0.1,0 0.5,-0.3 0.7,-0.7 1,-1.1 0.4,-1 0.8,-1.9 1.1,-3 0.1,-0.3 -0.1,-0.8 -0.5,-0.8 z"
       class="g0_6"
       id="path773"
       inkscape:connector-curvature="0"
       style="fill:#5091cd" />
    <path
       d="m 183.3,647.1 c -0.2,0.2 0.1,0.4 0.3,0.3 0.2,-0.1 0.3,-0.4 0.1,-0.4 -0.1,-0.1 -0.4,-0.1 -0.4,0.1 z"
       class="g0_6"
       id="path775"
       inkscape:connector-curvature="0"
       style="fill:#5091cd" />
    <path
       d="m 167.8,637.7 c -0.2,-0.5 -0.7,0 -1,-0.1 -0.2,0 -0.2,-0.2 -0.3,-0.2 -0.2,0 -0.3,0.1 -0.4,0.1 -0.2,0.2 0,0.6 0.2,0.5 0.2,0 0.3,-0.3 0.4,-0.1 0.2,0.3 0.1,0.8 0.5,0.7 0.3,-0.1 0.5,-0.3 0.8,-0.3 0.4,0 0.4,-0.4 0.4,-0.6 0.3,-0.1 0.7,-0.3 0.9,-0.1 0.1,0.1 0.1,0.4 0.2,0.5 0.1,0.2 0.4,0.3 0.6,0.3 0.3,-0.1 0.6,-0.1 0.8,-0.3 0.3,-0.3 0.2,-0.7 -0.1,-0.9 -0.1,0 -0.3,0.1 -0.4,0 -0.3,-0.2 -0.5,-0.4 -0.7,-0.5 -0.9,-0.2 -1.4,0.5 -1.9,1 z"
       class="g0_6"
       id="path777"
       inkscape:connector-curvature="0"
       style="fill:#5091cd" />
    <path
       d="m 170.4,638.4 c -0.1,0 -0.2,0 -0.3,0 z"
       class="g0_6"
       id="path779"
       inkscape:connector-curvature="0"
       style="fill:#5091cd" />
    <path
       d="m 164.7,638.1 c 0.3,0 0.6,0 0.9,0 0,-0.6 -0.5,-0.5 -0.8,-0.3 0,0 0,0.1 0,0.1 -0.1,0 -0.2,0 -0.3,0 -0.1,0.2 0.1,0.3 0.2,0.2 z"
       class="g0_6"
       id="path781"
       inkscape:connector-curvature="0"
       style="fill:#5091cd" />
    <path
       d="m 165.8,640.2 c 0.3,-0.5 0.8,-0.7 1.3,-1 0,0 0,-0.1 0,-0.1 l -0.1,0.1 c -0.1,-0.2 -0.2,-0.4 -0.4,-0.5 -0.1,0.2 -0.3,0.3 -0.4,0.4 -0.2,0.2 -0.6,0.4 -0.7,0.7 -0.1,0.2 -0.1,0.5 0.1,0.7 0.1,0.1 0.1,-0.2 0.2,-0.3 z"
       class="g0_6"
       id="path783"
       inkscape:connector-curvature="0"
       style="fill:#5091cd" />
    <path
       d="m 161.2,637.2 c -0.1,0.1 -0.1,0.3 0.1,0.3 0.2,0.1 0.2,-0.3 0.1,-0.4 -0.1,0 -0.2,-0.1 -0.2,0.1 z"
       class="g0_6"
       id="path785"
       inkscape:connector-curvature="0"
       style="fill:#5091cd" />
    <path
       d="m 150.3,630.2 c 0.3,0.2 0.8,0.2 1.2,0.2 0,0 0.2,-0.2 0.1,-0.3 -0.2,-0.2 -0.5,-0.1 -0.7,-0.3 l -0.2,-0.1 c -0.3,0 -0.4,0.2 -0.5,0.4 -0.1,0.1 0.1,0.1 0.1,0.1 z"
       class="g0_6"
       id="path787"
       inkscape:connector-curvature="0"
       style="fill:#5091cd" />
    <path
       d="m 178,635.3 c -0.1,0.2 -0.4,0.1 -0.6,0.2 -0.1,0 -0.1,0.3 -0.1,0.4 0.3,0.3 0.6,0.1 0.9,0 -0.1,0.2 0.1,0.1 0.1,0.2 0.2,0.1 0.2,-0.3 0.4,-0.2 0,0.1 0,0.3 0,0.3 -0.2,0.1 -0.2,0.3 -0.4,0.4 -0.2,0.1 -0.4,0.1 -0.5,-0.1 0,-0.1 -0.1,0 -0.2,0 h 0.1 c -0.1,0.1 0,0.4 -0.1,0.5 -0.4,0.3 -1.2,0.6 -0.9,1.1 0.3,0.3 0.9,0.2 1.4,0.2 0.1,0 0.2,-0.1 0.1,-0.1 0,-0.5 0.3,-0.6 0.6,-0.8 0.1,-0.1 -0.1,-0.3 -0.3,-0.4 -0.1,-0.1 0,-0.4 0.2,-0.4 0.2,0 0.2,-0.2 0.3,-0.2 v -0.3 c 0.3,0.1 0.6,-0.2 0.5,-0.4 -0.1,-0.3 -0.4,-0.6 -0.3,-1 0.1,-0.1 0.2,-0.3 0.4,-0.3 0.1,0 0.1,-0.2 0,-0.2 0,-0.1 -0.1,-0.1 -0.1,-0.1 0,0.2 -0.2,0.1 -0.2,0.2 -0.3,0.1 -0.6,0 -0.9,0.2 -0.3,0.1 -0.2,0.6 -0.4,0.8 z"
       class="g0_6"
       id="path789"
       inkscape:connector-curvature="0"
       style="fill:#5091cd" />
    <path
       d="m 174.8,638.4 c 0,0.4 0.4,0.2 0.6,0.1 -0.1,0 0,-0.2 -0.1,-0.2 -0.2,0 -0.3,0.1 -0.5,0.1 z"
       class="g0_6"
       id="path791"
       inkscape:connector-curvature="0"
       style="fill:#5091cd" />
    <path
       d="m 179.3,637.7 c -0.2,0.3 0.4,0.3 0.6,0.2 0,0 0,-0.1 0,-0.1 0.1,-0.1 0,-0.1 0,-0.1 -0.2,-0.2 -0.5,-0.1 -0.6,0 z"
       class="g0_6"
       id="path793"
       inkscape:connector-curvature="0"
       style="fill:#5091cd" />
    <path
       d="m 180.3,636.2 c -0.1,-0.1 -0.2,-0.1 -0.3,-0.1 0.1,0.1 0.1,0.4 0.3,0.3 v -0.1 c 0,0 0,-0.1 0,-0.1 z"
       class="g0_6"
       id="path795"
       inkscape:connector-curvature="0"
       style="fill:#5091cd" />
    <path
       d="m 173.5,623.9 c 0.3,0.1 0.5,0.4 0.6,0.6 0.1,0.4 -0.1,0.8 0.1,1.1 0,0.1 0.2,0.2 0.2,0.3 0.2,0.2 0,0.5 0.1,0.7 0.1,0.4 0.1,0.8 0.2,1.2 0.1,0 0.1,0.3 0.4,0.2 0,0.2 0.1,0.4 0.1,0.7 0.1,0.3 0.4,0.1 0.6,0.3 0.3,0.4 0.6,0.8 1,1.1 0.1,0.1 0.3,0.1 0.4,0.2 0,0.1 0,0.2 0.1,0.2 0.6,0.1 1.4,0.4 1.1,1.1 0.2,-0.2 0.5,-0.3 0.5,-0.5 0.2,-0.5 0.2,-0.9 0.1,-1.4 -0.2,-0.2 -0.5,-0.3 -0.5,-0.5 -0.1,-0.2 0,-0.4 0,-0.5 0,-0.3 -0.4,-0.2 -0.4,-0.3 -0.2,-0.3 -0.3,-0.8 0.3,-0.8 0,0 -0.1,-0.1 -0.1,-0.2 -0.2,0 -0.3,0.1 -0.5,0 -0.2,0 -0.2,-0.2 -0.2,-0.2 0,-0.4 0.1,-0.8 -0.1,-1 -0.3,-0.1 -0.6,-0.2 -0.9,-0.4 -0.2,-0.1 -0.4,-0.3 -0.6,-0.4 -0.1,-0.1 -0.4,0.1 -0.5,0 -0.5,-0.5 -0.8,-1.2 -1.3,-1.8 -0.2,-0.2 -0.5,-0.2 -0.8,-0.1 -0.1,0 -0.1,0.1 -0.1,0.1 q 0.1,0 0.1,0.1 c 0.1,0 0.1,0.1 0.1,0.2 z"
       class="g0_6"
       id="path797"
       inkscape:connector-curvature="0"
       style="fill:#5091cd" />
    <path
       d="m 170.7,624.9 c -0.2,0.3 -0.1,0.7 0.1,0.7 0.3,0.2 0.7,0.1 1.1,0.1 0.2,0 0.3,-0.2 0.4,-0.4 0.2,-0.3 0.7,-0.2 1.1,-0.3 0,0.2 0.1,0.2 0.3,0.3 -0.1,-0.3 -0.1,-0.6 -0.2,-0.7 -0.4,-0.2 -0.4,-0.6 -0.6,-0.9 0,-0.1 -0.2,0.1 -0.2,0.1 0,0.6 -0.4,0.5 -0.8,0.6 0,0.1 0,0.2 0,0.2 0,0 -0.1,0 -0.1,0 -0.1,-0.1 -0.2,-0.1 -0.2,-0.2 -0.1,0 -0.4,0 -0.5,0.1 -0.1,0.2 -0.3,0.2 -0.4,0.4 z"
       class="g0_6"
       id="path799"
       inkscape:connector-curvature="0"
       style="fill:#5091cd" />
    <path
       d="m 163.5,613 c -0.3,-0.6 -0.8,-1.2 -0.7,-2 1,0.3 1.8,0.2 2.8,-0.1 0.7,-0.2 1.5,0.1 2.1,-0.3 0.1,-0.1 0.1,-0.4 0.1,-0.5 -0.8,0.3 -1.5,-0.7 -2.2,-0.3 -0.9,0.6 -1.9,0.8 -2.8,1 -0.8,0.2 -2.6,0.1 -2.7,1.1 1,0 2.1,0.1 2.7,1 0.1,0.1 0.5,0.1 0.7,0.1 z"
       class="g0_6"
       id="path801"
       inkscape:connector-curvature="0"
       style="fill:#5091cd" />
    <path
       d="m 166.6,617.5 c 0.3,0.5 0.8,0.6 1.3,0.8 0,-0.3 -0.1,-0.4 -0.2,-0.5 -0.4,-0.3 -0.7,-0.3 -1.1,-0.3 z"
       class="g0_6"
       id="path803"
       inkscape:connector-curvature="0"
       style="fill:#5091cd" />
    <path
       d="m 165.9,619 c -0.1,0.1 0.1,0.3 0.2,0.5 0,-0.2 0.3,-0.7 -0.2,-0.5 z"
       class="g0_6"
       id="path805"
       inkscape:connector-curvature="0"
       style="fill:#5091cd" />
    <path
       d="m 165.2,618.1 c 0,0 0.1,0 0.2,0 0,0 0,-0.1 0,-0.1 0,-0.3 -0.4,-0.4 -0.6,-0.5 0,0.1 -0.1,0.3 0,0.3 0.2,0.1 0.2,0.2 0.4,0.3 z"
       class="g0_6"
       id="path807"
       inkscape:connector-curvature="0"
       style="fill:#5091cd" />
    <path
       d="m 167.9,621.6 c 0,0 0.1,0.1 0.2,0 q 0.1,-0.1 0.1,-0.3 v 0.1 c -0.1,-0.1 0,-0.3 -0.1,-0.4 q -0.1,0 -0.2,0 c -0.2,0.2 0,0.4 0,0.6 z"
       class="g0_6"
       id="path809"
       inkscape:connector-curvature="0"
       style="fill:#5091cd" />
    <path
       d="m 168.9,621.6 c 0,0.2 0,0.3 0.1,0.4 q 0.1,0 0.2,-0.1 -0.1,-0.1 -0.1,-0.2 c 0,-0.2 -0.2,0 -0.2,-0.1 z"
       class="g0_6"
       id="path811"
       inkscape:connector-curvature="0"
       style="fill:#5091cd" />
    <path
       d="m 168.5,622.4 c 0.1,0.1 0.2,-0.1 0.2,-0.3 0,0 0.1,0 0.1,0 V 622 c -0.2,-0.1 -0.4,-0.3 -0.6,-0.1 -0.1,0.2 0.2,0.2 0.3,0.5 z"
       class="g0_6"
       id="path813"
       inkscape:connector-curvature="0"
       style="fill:#5091cd" />
    <path
       d="m 168.9,622.5 c 0.1,0 -0.2,0 -0.1,0.1 0.2,0.2 0.5,0.4 0.7,0.3 0.2,-0.1 0.3,-0.3 0.2,-0.4 -0.2,-0.1 -0.5,0 -0.7,0 z"
       class="g0_6"
       id="path815"
       inkscape:connector-curvature="0"
       style="fill:#5091cd" />
    <path
       d="m 170.3,623.1 c 0.1,-0.1 0,-0.2 0,-0.3 -0.1,-0.1 -0.2,-0.3 -0.3,-0.2 -0.1,0.1 -0.2,0.4 0,0.5 0.1,0 0.2,0.1 0.3,0 z"
       class="g0_6"
       id="path817"
       inkscape:connector-curvature="0"
       style="fill:#5091cd" />
    <path
       d="m 170.8,624 c 0,0 0.2,-0.1 0.3,-0.2 0,0 0,-0.1 0,-0.1 q 0.1,0 0.1,-0.1 c 0.1,-0.1 0,-0.3 -0.1,-0.3 -0.1,0 -0.2,0.1 -0.3,0 v -0.1 c -0.1,0 -0.2,-0.1 -0.3,0 -0.1,0.1 -0.1,0.3 -0.1,0.4 0.1,0.1 0.2,0.2 0.4,0.4 z"
       class="g0_6"
       id="path819"
       inkscape:connector-curvature="0"
       style="fill:#5091cd" />
    <path
       d="m 169.9,624.6 c 0.1,0 0.2,0 0.2,-0.1 0,-0.1 0,-0.2 0,-0.4 0,-0.1 -0.1,-0.1 -0.2,0 -0.1,0 -0.1,0.2 -0.2,0.2 0,0.2 0.1,0.3 0.2,0.3 z"
       class="g0_6"
       id="path821"
       inkscape:connector-curvature="0"
       style="fill:#5091cd" />
    <path
       d="m 169.1,609.5 c 0,0 0,-0.1 0,-0.1 v -0.1 c -0.1,-0.1 -0.3,0 -0.5,0 0.1,0.2 0.3,0.3 0.5,0.2 z"
       class="g0_6"
       id="path823"
       inkscape:connector-curvature="0"
       style="fill:#5091cd" />
    <path
       d="m 179.4,616.9 c 0.2,0.2 0.5,0 0.7,0.2 0.2,0.2 0.3,0.5 0.6,0.5 0.2,0 0.4,-0.1 0.4,-0.3 0,-0.5 -0.2,-1 -0.7,-1.3 -0.4,-0.1 -0.9,-0.1 -1.4,-0.1 -0.3,0 -0.3,0.4 -0.1,0.5 0.1,0.2 0.3,0.3 0.5,0.5 z"
       class="g0_6"
       id="path825"
       inkscape:connector-curvature="0"
       style="fill:#5091cd" />
    <path
       d="m 191.9,632.8 c -0.3,-0.5 -0.3,-0.9 -0.5,-1.2 -0.2,-0.4 -0.7,-0.4 -1,-0.8 -0.1,-0.1 0.1,-0.4 -0.1,-0.6 -0.1,-0.1 -0.2,-0.2 -0.2,-0.3 -0.2,-0.4 -0.4,-0.7 -0.8,-0.9 0.2,-0.5 -0.3,-0.7 -0.8,-0.8 0,-0.1 0.1,-0.2 0.1,-0.3 0,-0.2 -0.3,-0.2 -0.4,-0.3 -0.1,0 -0.2,0 -0.3,0 -0.2,-0.3 -0.5,-0.6 -0.6,-0.8 -0.2,-0.5 -0.6,-0.7 -1,-1 -0.1,-0.1 -0.2,-0.4 -0.3,-0.4 -0.3,0 -0.6,0 -0.7,-0.3 0,-0.6 -0.5,-0.9 -0.9,-1.3 -0.6,-0.4 0,-1.3 -0.3,-2 0,-0.3 -0.3,-0.3 -0.6,-0.3 -0.1,0 -0.2,-0.1 -0.2,-0.2 -0.3,-0.4 -0.1,-0.9 -0.4,-1.2 -0.4,-0.6 -0.9,-1.1 -1.3,-1.7 -0.3,-0.3 -0.7,-0.2 -1,-0.3 -0.1,0 -0.2,0 -0.2,-0.1 -0.2,-0.1 -0.2,-0.2 -0.3,-0.4 -0.2,-0.3 -0.6,-0.4 -0.9,-0.6 -0.6,-0.3 -1.3,-0.1 -2,-0.2 -0.5,-0.1 -1.1,0.1 -1.5,0.5 -0.5,0.3 -1,0.5 -1.6,0.6 -0.2,0 0.1,0.3 0,0.5 -0.1,0.2 -0.5,0.5 -0.3,0.7 0,0 -0.1,0 -0.1,0.1 0.2,0.1 0.4,0 0.6,0 0.2,0 0.2,0.3 0.4,0.4 0.2,0.2 0.5,0.5 0.7,0.8 0,0.1 -0.2,0.4 -0.1,0.5 0.3,0.3 0.3,0.6 0.3,1.1 0,0.1 0.3,0 0.4,0 0.5,0.3 0.6,0.9 0.4,1.4 0,0.2 0,0.6 0.1,0.8 0.3,0.5 0.3,1.2 0.7,1.5 0.1,-0.1 0.3,-0.3 0.3,-0.3 0.4,0 0.4,-0.3 0.7,-0.4 0.7,-0.5 1.3,0.5 1.5,1 0.2,0.6 0,1.3 0.2,1.8 0.2,0.5 0.6,1 1.1,1.2 0.1,0.1 0.1,0.4 0.2,0.7 0.1,0.1 0.2,0.3 0.4,0.1 0.1,-0.1 0.1,-0.3 0.3,-0.4 0.1,0 0.3,0.1 0.4,0.2 0.5,0.5 0.6,1.7 1.5,1.6 0,0.2 0.1,0.3 0.2,0.3 0.2,0.1 0.4,-0.2 0.5,0.1 0.1,0.2 0.2,0.5 0.4,0.6 0.3,0.1 0.7,-0.1 1,0 0.2,0.1 0.4,0.3 0.6,0.6 0.1,0.1 0.2,0.3 0.3,0.4 0.6,0.6 0.9,1.6 1.7,2 0.2,0.2 0.4,0.5 0.8,0.4 0.1,0 0,-0.2 0.1,-0.2 0.3,0 0.5,-0.3 0.6,-0.5 0.3,-0.3 0.6,-0.6 1,-0.8 0,0 0,-0.1 0,-0.1 0.3,-0.2 0.7,-0.3 0.9,-0.6 0.3,-0.1 0.1,-0.5 0,-0.6 z"
       class="g0_6"
       id="path827"
       inkscape:connector-curvature="0"
       style="fill:#5091cd" />
    <path
       d="m 179.7,631.3 c 0.1,0 0.2,0.1 0.2,0.1 q 0.1,0 0.2,0 z"
       class="g0_6"
       id="path829"
       inkscape:connector-curvature="0"
       style="fill:#5091cd" />
    <path
       d="m 179.2,633 c 0.1,0.2 0.4,0.3 0.6,0.4 0.2,0.2 0.3,0.5 0.5,0.6 0.4,0.2 0.2,-0.5 0.4,-0.7 0.1,0 0.3,0 0.4,0 0.2,-0.4 -0.1,-0.9 -0.4,-1.2 -0.2,-0.2 -0.4,-0.6 -0.8,-0.7 -0.2,-0.1 -0.3,0 -0.4,0.2 -0.2,0.2 0,0.6 -0.2,0.9 -0.1,0.2 -0.2,0.3 -0.1,0.5 z"
       class="g0_6"
       id="path831"
       inkscape:connector-curvature="0"
       style="fill:#5091cd" />
    <path
       d="m 181.5,634.4 c -0.2,0.6 -0.1,1.2 -0.1,1.8 -0.1,0.3 -0.5,0.3 -0.7,0.5 -0.1,0.2 -0.2,0.4 -0.2,0.6 0.1,0.4 0.6,0.4 0.8,0.5 0.8,0.4 1.5,1 1.9,1.7 0.1,0.3 0.2,0.6 0.4,0.8 0.2,0.3 0.7,0.3 0.7,0.7 0.1,0.1 0.3,0.2 0.5,0.1 0.4,-0.3 0.3,-0.9 0,-1.3 -0.1,-0.1 -0.3,-0.4 -0.3,-0.6 0,-0.8 -0.3,-1.6 -0.7,-2.3 -0.3,-0.4 -0.8,-0.6 -1.1,-1 0,0 -0.1,-0.2 0,-0.3 0.1,-0.2 0.3,-0.3 0.3,-0.5 0,-0.5 -0.4,-0.6 -0.5,-1 0,0 -0.2,0 -0.3,0 h 0.3 c -0.4,-0.1 -0.9,0 -1,0.3 z"
       class="g0_6"
       id="path833"
       inkscape:connector-curvature="0"
       style="fill:#5091cd" />
    <path
       d="m 185.8,638.5 c 0,-0.2 0,-0.4 0,-0.7 0,-0.5 -0.5,-0.5 -0.9,-0.5 -0.2,0 -0.4,-0.1 -0.4,0.1 0,0.2 0,0.4 0.1,0.6 0.7,0.8 0.6,1.9 1,2.9 0.1,0.4 0.7,0.1 0.8,-0.3 0.1,-0.3 0.1,-0.5 0.1,-0.7 -0.1,-0.2 -0.3,-0.3 -0.4,-0.6 0,-0.3 -0.2,-0.5 -0.3,-0.8 z"
       class="g0_6"
       id="path835"
       inkscape:connector-curvature="0"
       style="fill:#5091cd" />
    <path
       d="m 184.7,635.9 c -0.3,0.3 0.2,0.5 0.1,0.9 h 0.1 c 0.2,0.1 0.2,-0.2 0.3,-0.3 -0.4,0.1 -0.4,-0.3 -0.3,-0.6 q -0.1,0 -0.2,0 z"
       class="g0_6"
       id="path837"
       inkscape:connector-curvature="0"
       style="fill:#5091cd" />
    <path
       d="m 184.6,635.1 c 0,-0.2 -0.1,-0.4 -0.3,-0.4 0,0.3 -0.3,0.2 -0.5,0.4 -0.2,0.1 0,0.4 0.3,0.5 0,0 0,0.1 0,0.1 0.5,0.2 0.8,-0.2 0.6,-0.6 0,0 -0.1,0 -0.1,0 z"
       class="g0_6"
       id="path839"
       inkscape:connector-curvature="0"
       style="fill:#5091cd" />
    <path
       d="m 183.1,633.6 c 0.4,0.3 0,0.7 0.3,0.8 0.2,0.1 0.6,0.2 0.8,0 0.2,-0.1 0,-0.4 -0.3,-0.4 -0.1,0 -0.1,-0.2 -0.1,-0.4 -0.1,0 -0.1,-0.1 -0.2,-0.1 -0.3,-0.2 0.3,-0.4 0.1,-0.6 0,-0.1 0,-0.2 -0.1,-0.2 -0.1,-0.1 -0.2,0 -0.3,0.1 -0.1,0.1 0.1,0.3 0,0.4 0,0.2 -0.4,0.3 -0.2,0.4 z"
       class="g0_6"
       id="path841"
       inkscape:connector-curvature="0"
       style="fill:#5091cd" />
    <path
       d="m 182.9,631.8 c -0.2,-0.1 -0.5,0 -0.6,-0.3 -0.1,0 -0.2,0 -0.3,0 q 0,0.1 0,0.1 c -0.1,0.2 -0.3,0.3 -0.1,0.4 0.1,0.1 0.2,0.2 0.3,0.4 0.1,0.2 0.3,0 0.4,0.1 0.1,0.2 0.2,0.3 0.3,0.2 0.2,-0.1 0.1,-0.3 0.1,-0.5 -0.1,0.1 0,-0.1 -0.1,0 0,-0.2 0.1,-0.4 0,-0.4 z"
       class="g0_6"
       id="path843"
       inkscape:connector-curvature="0"
       style="fill:#5091cd" />
    <path
       d="m 161.3,645.8 h 0.1 c 0,-0.1 0,-0.2 0.1,-0.2 0.1,-0.1 0,-0.3 -0.1,-0.4 -0.1,-0.1 -0.3,0 -0.3,0.3 h 0.2 c -0.1,0.1 -0.1,0.2 0,0.3 z"
       class="g0_6"
       id="path845"
       inkscape:connector-curvature="0"
       style="fill:#5091cd" />
    <path
       d="m 185.1,641.9 c -0.4,-0.1 -0.8,0.1 -1.1,0.3 -0.8,0.4 -0.9,1.4 -1.3,1.9 -0.3,0.3 -0.7,0.5 -1.1,0.5 -0.1,0 -0.3,-0.1 -0.3,-0.2 0,-0.2 -0.1,-0.4 0.1,-0.6 0.1,-0.1 0.3,-0.2 0.4,-0.4 0.2,-0.3 0.1,-0.7 0,-1 -0.2,-0.7 -0.9,-1.1 -1.5,-1 -0.7,0.1 -1.1,0.8 -1.4,1.4 0,0 -0.1,0 -0.1,0 -0.3,-0.3 -0.6,-0.5 -0.8,-0.8 0,0 0,-0.1 0,-0.2 0.3,0.2 0.5,0.6 0.8,0.4 0.3,-0.1 0,-0.5 -0.2,-0.6 -0.2,0 -0.4,-0.3 -0.7,-0.2 -0.2,0 -0.4,-0.3 -0.5,-0.6 -0.1,-0.3 -0.1,-0.8 -0.4,-0.9 -0.4,-0.1 -0.7,-0.1 -1,-0.4 -0.1,0 -0.3,0.1 -0.5,0.1 0.1,-0.1 0,-0.4 0.1,-0.4 0.4,0 0.9,0 0.6,-0.4 -0.1,-0.3 -0.3,-0.5 -0.5,-0.3 -0.1,0 -0.3,0 -0.3,0.2 0,0 0,0.1 -0.1,0.2 -0.1,0.2 0.1,0.5 0,0.6 -0.2,0.2 -0.6,0.1 -0.9,0.4 -0.1,0 -0.2,0 -0.2,0 -0.3,-0.1 -0.7,-0.4 -0.8,-0.3 -0.2,0.2 -0.3,0.5 -0.5,0.6 -0.2,0.1 -0.5,0.1 -0.7,0.2 -0.3,0.2 -0.1,0.7 0,1 0.1,0.1 0.1,0.3 -0.1,0.4 -0.2,0.1 -0.3,-0.2 -0.3,-0.3 -0.2,-0.3 -0.3,-0.7 -0.3,-1.1 0,-0.3 0.5,-0.5 0.6,-0.9 0.1,-0.2 0.1,-0.4 0,-0.7 -0.2,-0.2 -0.5,-0.3 -0.7,-0.3 -0.6,0.2 -0.8,1.3 -1.5,1 -0.3,-0.1 -0.6,-0.4 -1,-0.6 -0.2,-0.1 -0.4,-0.3 -0.6,-0.1 -0.4,0.3 -1,0.5 -1.5,0.8 -0.4,0.2 -0.8,0.7 -1,1.1 -0.3,0.6 -1.4,1 -1.8,0.3 -0.1,-0.4 -0.5,-0.7 -0.9,-0.6 -0.3,0 -0.4,0.5 -0.8,0.6 -0.3,0 -0.5,-0.1 -0.6,-0.3 0,-0.1 0,-0.2 0,-0.2 0.5,-0.4 1.1,-0.7 1.7,-1 0.4,-0.1 0.4,-0.4 0.3,-0.7 0,-0.1 0,-0.2 -0.1,-0.3 0,-0.1 -0.1,-0.4 -0.1,-0.4 -0.8,0.1 -1.5,0.7 -1.9,1.4 0,0.1 -0.1,0.2 -0.1,0.2 -0.5,0 -1.1,0.3 -1.5,0 -0.1,-0.1 -0.2,-0.6 -0.3,-0.6 -0.2,0.2 -0.3,0.5 -0.5,0.7 0,0.1 -0.2,0.2 -0.2,0.3 -0.3,0.5 0.2,0.9 0.1,1.3 -0.1,0.1 -0.6,0.1 -0.9,0.2 -0.1,0.1 -0.1,0.3 -0.1,0.5 0,0.2 0.2,0.2 0.3,0.2 0.3,0.3 0.3,0.8 0.7,1 0.5,0.2 1,0 1.6,0.2 0.3,0.1 0.6,0.3 0.7,0.7 0.1,0.2 0.4,0.3 0.4,0.6 0.1,0.1 0.2,0.2 0.3,0.2 0.2,0.1 0.4,-0.1 0.6,0 0.2,0.1 0.1,0.4 0.2,0.6 0.1,0.3 -0.1,0.7 0.3,1.1 0.1,0.1 -0.2,0.5 -0.3,0.7 -0.1,0.1 -0.4,0.1 -0.4,0.2 -0.1,0.3 0,0.6 0.2,0.8 0.1,0.2 0.3,0 0.3,0.1 0.3,0.4 0.4,0.8 0.7,1.1 0.1,0.1 0.2,0.3 0.3,0.3 -0.2,0.1 -0.2,0.3 -0.2,0.4 0.1,0.1 0.4,0.2 0.5,0.1 0.2,-0.2 0.4,-0.2 0.6,-0.4 0.1,-0.1 0.3,-0.1 0.4,-0.2 0.1,0.1 0.3,0.4 0.2,0.5 -0.3,0.3 -0.8,0.1 -1.2,0.3 -0.2,0.1 -0.4,0.1 -0.5,0.3 -0.1,0.1 0,0.3 0.2,0.4 0.7,0.1 0.1,1.1 -0.2,1.7 -0.1,0.1 0,0.3 0,0.5 -0.1,0.1 -0.2,0.1 -0.3,0.1 -0.7,0.1 -1.4,-0.1 -2,0.1 -0.2,0 -0.3,0.3 -0.4,0.6 h 0.1 c -0.2,0 -0.2,0.2 -0.2,0.3 -0.1,0.1 0,0.4 -0.1,0.5 -0.6,0.7 -0.7,1.5 -0.8,2.3 0,0.2 0.3,0.4 0.4,0.4 0.2,0 0.4,-0.2 0.6,-0.2 0.3,0 0.2,0.5 0.3,0.7 0.2,0.2 0.6,0.3 0.7,-0.1 0.1,-0.2 0.1,-0.5 0.1,-0.8 0.1,-0.3 -0.2,-0.5 -0.3,-0.8 -0.1,-0.3 0.1,-0.6 0.3,-0.8 0.1,-0.1 0.3,0 0.3,0.2 0.1,0.2 0.1,0.4 0.2,0.6 0,0.2 -0.2,0.5 0,0.6 0.1,0.2 0.2,0.4 0.1,0.5 0,0.1 -0.1,0.2 -0.2,0.3 -0.1,0.2 0.1,0.6 -0.1,0.7 -0.2,0.1 -0.2,0.4 -0.4,0.4 -0.6,0.1 -1.3,-0.2 -1.1,-0.9 -0.2,0 -0.4,0 -0.5,0.2 -0.1,0.3 0,0.7 -0.2,0.9 -0.2,0.2 -0.3,0.5 -0.5,0.7 -0.1,0.1 0.1,0.1 0,0.2 -0.3,0.3 -0.6,0.5 -1,0.7 v 0.1 c -0.3,0.2 -0.6,-0.1 -0.7,0.2 -0.2,0.3 0.3,0.5 0.4,0.8 0.1,0.2 0,0.4 -0.3,0.4 -0.4,0.1 -0.7,0.1 -1.1,0 0,0.1 -0.1,0.1 -0.1,0.2 -0.1,0.3 0,0.6 -0.3,0.9 -0.2,0.2 0.1,0.5 0.2,0.7 0.2,0.2 0.3,0.6 0.5,0.6 0.2,0.1 0.3,0.2 0.5,0.2 0.3,-0.1 0.6,-0.2 0.7,-0.6 0.1,-0.2 0.4,0.1 0.7,0 0,0 0.1,-0.1 0.2,-0.1 0.2,-0.2 -0.1,-0.5 0,-0.7 0.4,-0.4 0.8,-0.7 1.3,-1.1 0.2,-0.1 0.4,-0.2 0.6,-0.1 0.2,0 0.4,0.1 0.6,0.2 0.2,0.1 0.3,0.2 0.5,0.3 0,0.1 0.2,0.1 0.3,0.2 0.3,0.1 0.5,0.5 0.9,0.7 0.1,0.1 0,-0.1 0.1,-0.1 0,-0.3 -0.1,-0.6 -0.2,-0.8 -0.2,-0.3 -0.6,-0.5 -0.8,-0.7 -0.1,-0.1 -0.1,-0.3 0,-0.4 0.1,-0.1 0.2,-0.1 0.2,0 0.2,0.1 0.4,0.1 0.5,0.2 0.4,0.2 0.4,0.8 0.7,1 0.2,0.1 0.4,0.4 0.6,0.4 0.3,0.1 0.7,0 0.9,-0.3 0.1,-0.2 -0.1,-0.3 -0.3,-0.5 -0.3,-0.2 0.2,-0.3 0.3,-0.5 0.3,-0.3 0,-0.5 0,-0.8 0,-0.1 0,-0.2 0.1,-0.2 0,0 0,-0.1 0.1,-0.1 0.1,-0.3 0,-0.7 0.1,-1.1 0.1,0 0.2,0 0.2,0 0.1,0.2 0.3,0.3 0.4,0.2 0.3,-0.1 0.5,-0.2 0.7,-0.5 0.3,-0.3 0.8,-0.1 0.9,0.2 0.1,0.2 0,0.6 -0.2,0.6 -0.6,0.1 -1.1,0.4 -1.5,0.7 -0.1,0 -0.2,0.1 -0.2,0.1 -0.3,0.2 -0.4,0.4 -0.2,0.8 0,0.1 -0.2,0.3 -0.3,0.4 0.2,0.1 0.2,0.4 0.4,0.4 0.4,0.1 0.8,0.1 1,-0.1 0.1,-0.1 0.2,-0.3 0.1,-0.5 0.3,-0.1 0.5,-0.3 0.7,-0.4 0.6,0 0.9,0.6 0.7,1 0,0.1 -0.1,0.1 -0.2,0.1 -0.3,0.5 -0.5,0.9 -0.9,1.1 -0.7,0.4 -1.5,0.3 -2.1,0.6 -0.2,0.2 -0.3,0.6 -0.7,0.7 -0.2,0.1 -0.6,0.2 -0.9,0 0,0.3 -0.7,0.1 -1.1,0 -0.1,-0.1 0,-0.4 -0.2,-0.5 -0.1,-0.1 -0.3,0 -0.4,-0.1 0,-0.1 0,-0.3 0,-0.3 -0.8,-0.1 -1.6,0.1 -2.4,0 -0.2,0 -0.2,0.3 -0.4,0.4 -0.1,0.1 -0.3,0.3 -0.4,0.3 -0.3,0.2 -0.7,0.4 -1.1,0.3 -0.3,0.1 -0.6,0.1 -0.9,0.2 -0.5,0.1 -0.8,0.5 -1.2,0.8 -0.4,0.2 -0.7,0.2 -1.1,0.2 -0.1,0 0,0.2 -0.1,0.2 -0.6,0.1 -1.1,0.8 -1.4,1.4 -0.1,0.2 0.1,0.4 0,0.5 -0.3,0.5 -0.5,0.9 -0.9,1.3 0,0 0,0.1 0,0.2 0.4,0.6 1,1 1.4,1.6 0.1,0.2 0.3,0.2 0.4,0.4 0.2,0.3 0.4,0.7 0.6,1.1 0.3,0.5 1.1,0.7 1.7,0.5 0.2,-0.1 0.5,0.1 0.7,0.2 0.7,0 1.5,0.2 2.2,-0.1 1,0.3 2.1,-0.2 3,0.3 0.2,0 0.2,0.4 0.3,0.6 0.3,0.4 0.5,0.8 0.9,1.1 0.3,0.2 0.8,0.4 1.2,0.4 0.2,0 0.2,0.3 0.3,0.5 0.1,0.1 0.1,0.4 0.2,0.5 0.3,0.3 0.5,0.4 0.4,0.7 0,0.4 -0.4,0.7 -0.1,1.2 0,0.1 -0.1,0.4 0,0.5 0.6,0.6 1.1,1.1 1.8,1.6 0.1,0.1 0.2,0.2 0.2,0.3 0.2,0.1 0.3,0.4 0.5,0.5 0.1,0.2 0,0.5 0.2,0.6 0.2,0.3 0.5,0.6 0.7,0.9 0.4,0.3 0.9,0.2 1.3,0.3 0.1,0.1 0.2,0.1 0.4,0.2 0.4,0.1 0.8,0.1 1.2,-0.1 0.2,-0.2 0.3,-0.5 0.5,-0.6 0.3,-0.3 0.8,-0.3 1.2,-0.3 0.1,0 0.2,-0.1 0.3,-0.2 0,-0.2 0.3,-0.4 0.2,-0.6 0.3,0 0.6,-0.2 0.8,-0.3 0.6,-0.3 0.9,-0.8 1.4,-1.2 0.5,-0.5 1.3,-0.3 1.6,-0.8 0.2,-0.5 -0.1,-1.1 0.1,-1.7 0.1,-0.3 0.3,-0.6 0.3,-0.9 0.1,-0.5 0.1,-1 0,-1.5 0,-0.3 -0.3,-0.6 -0.2,-0.9 0,-0.2 0.3,-0.2 0.4,-0.4 0.2,-0.4 0.4,-0.8 0.6,-1.2 0,-0.1 0.2,-0.1 0.3,-0.2 0.2,-0.1 0,-0.3 0,-0.5 -0.1,-0.1 -0.2,-0.2 -0.2,-0.3 -0.5,-0.6 -0.9,-1.2 -1.6,-1.5 -0.2,-0.1 -0.2,-0.3 -0.3,-0.4 0,-0.1 0.1,-0.2 0,-0.3 -0.2,-0.1 -0.1,-0.3 -0.2,-0.4 h 0.2 c -0.1,0 -0.1,-0.1 -0.1,-0.1 0.2,-0.4 0.4,-0.8 0.7,-1.1 0.1,-0.1 0.4,-0.1 0.4,-0.2 0.1,-0.4 0.1,-0.7 -0.1,-1.1 -0.3,-0.4 0,-0.8 -0.1,-1.3 -0.1,-0.8 -0.1,-1.6 -0.5,-2.3 0,-0.3 -0.3,-0.4 -0.6,-0.3 -0.1,0 -0.1,0.2 -0.2,0.3 -0.1,0.1 -0.1,0.3 -0.1,0.5 -0.2,0.2 -0.5,0.3 -0.6,0.6 -0.1,0.2 -0.1,0.4 -0.2,0.5 -0.1,0.1 -0.3,0.3 -0.4,0.3 -0.3,0.1 -0.6,0.2 -0.9,0.3 -0.3,0 -0.6,0 -1,-0.1 -1.7,-0.4 -3.2,-1.1 -5,-1.6 0,0 0,-0.1 0,-0.1 0.3,-0.2 0.6,0 0.9,0 0.2,-0.1 -0.1,-0.4 0,-0.4 0.4,0.1 0.7,0.4 1.1,0.5 0.7,0.3 1.4,0.3 2.2,0.5 0.6,0.1 1,0.5 1.6,0.7 0.4,0.1 0.8,-0.2 1.1,-0.4 0,0 0,-0.1 0,-0.2 0.2,-0.3 0.5,-0.5 0.7,-0.7 0,-0.3 -0.1,-0.6 0,-0.8 0.1,-0.1 0.3,-0.2 0.3,-0.4 0.1,-0.4 0.1,-0.7 0.1,-1.1 0.2,0 0.4,-0.2 0.3,-0.3 0,-0.1 -0.1,-0.2 -0.1,-0.2 0,-0.2 0,-0.5 0.1,-0.7 0.1,-0.5 -0.1,-1.1 -0.3,-1.5 -0.1,-0.3 -0.4,-0.4 -0.7,-0.3 -0.1,0.1 -0.1,0.2 -0.2,0.3 -0.2,0 -0.5,0.1 -0.6,0.2 -0.3,0.2 -0.3,0.6 -0.4,0.7 -0.4,0.3 -0.7,0.6 -1.1,0.8 -0.3,0.1 -0.7,0 -0.8,-0.3 -0.2,-0.7 0.7,-0.6 1.2,-0.7 0.1,0 0.2,-0.2 0.3,-0.2 0.1,-0.3 0.1,-0.7 0.4,-0.8 0.2,-0.1 0.4,-0.1 0.6,0 0.2,0 0.3,-0.2 0.5,-0.3 0.1,-0.1 0.1,-0.4 0.2,-0.5 0,-0.3 0.4,-0.5 0.5,-0.7 0.3,-0.6 0.3,-1.4 0.7,-1.8 0.3,-0.2 0.2,0.4 0.3,0.5 0.2,0.3 0.7,0.2 0.9,0.1 0.1,-0.2 -0.1,-0.6 0.2,-0.7 0.1,-0.1 0.3,-0.1 0.4,0 0.2,0.1 0.4,0.3 0.7,0.2 0.1,-0.1 0.3,-0.3 0.4,-0.4 0.3,-0.1 0.6,0 0.8,-0.1 0.6,-0.3 2,0.1 1.9,-0.5 -0.1,-1 -0.9,-1.7 -1.8,-2.2 -0.7,-0.3 -0.4,-1.3 -1,-1.8 -0.2,-0.1 -0.1,-0.4 -0.2,-0.5 -0.1,-0.1 -0.2,-0.2 -0.3,-0.2 -0.1,-0.1 -0.2,-0.2 -0.2,-0.2 0.1,-0.5 -0.1,-1 0.2,-1.4 0.1,-0.2 0.4,-0.3 0.6,-0.5 0.2,-0.2 0.6,-0.3 0.6,-0.6 0,-0.4 0,-0.8 0,-1.2 0.1,-0.2 0.3,-0.3 0.5,-0.3 0.7,0 1.4,0.2 2.1,-0.2 0.2,-0.2 0.2,-0.4 0.3,-0.5 0.5,-0.8 1.3,-1.4 1.3,-2.4 0,-0.1 0.2,-0.2 0.3,-0.4 0.1,-0.1 0.1,-0.3 0,-0.3 m -13.9,16.5 c 0,0.1 0.1,0.2 0,0.2 -0.1,0.1 -0.4,0.1 -0.4,-0.1 -0.1,-0.2 -0.2,-0.4 -0.4,-0.5 -0.2,-0.1 -0.4,0 -0.5,0.2 -0.2,-0.2 -0.3,-0.1 -0.5,-0.1 0,-0.3 -0.2,-0.3 -0.4,-0.5 -0.2,-0.2 -0.1,-0.5 0.2,-0.6 0.2,-0.1 0.3,0.1 0.4,0.3 0,0 -0.1,0 -0.1,-0.1 0,0.1 0,0.2 0,0.2 0.2,0.2 0.4,0 0.6,0.1 0.3,0.2 0.6,-0.1 0.9,0.1 0,0 0,0.1 0.1,0.1 0.3,0.1 0.4,0.4 0.3,0.6 0,0 -0.1,0.1 -0.2,0.1 z"
       class="g0_6"
       id="path847"
       inkscape:connector-curvature="0"
       style="fill:#5091cd" />
    <path
       d="m 143,711.5 c 3.9,-5.8 15.8,-12 27.4,-12 11.7,0 24.4,6.7 29.4,3.1 0,0 -5.1,4.5 -15.4,4.5 -10.4,0 -14.3,-5.2 -21.5,-5.2 -7.1,0 -14.7,5.8 -17.9,10.6 z"
       class="g0_6"
       id="path849"
       inkscape:connector-curvature="0"
       style="fill:#5091cd" />
    <path
       d="m 179.8,698.6 c 0,0 3.4,-2 5.2,-5.8 1.8,-3.7 6.5,-9.7 11.2,-13.4 0,0 -5.3,16.8 -10.7,17.5 0,0 -0.9,0.5 0.6,0.3 1.6,-0.3 8.6,-2.9 11,-3.3 2.5,-0.4 8.6,-1.8 10.2,-3.4 1.4,-1.4 2.3,-1.2 2.3,-1.2 0,0 -6.7,11.3 -18.9,11.3 0,0 -5.9,-0.5 -10.9,-2 z"
       class="g0_6"
       id="path851"
       inkscape:connector-curvature="0"
       style="fill:#5091cd" />
    <path
       d="m 194.1,692.8 c 0,0 1.3,-1.9 1.6,-5.3 0.2,-3.3 2.3,-11 8.1,-19.3 0,0 0.8,13.2 -5.7,21.3 0,0 -0.4,1.2 0.4,0.3 0.9,-0.8 5,-5.8 14,-11.9 0,0 4.7,-3.9 4.9,-5.1 0,0 -3.6,18.7 -23.3,20 z"
       class="g0_6"
       id="path853"
       inkscape:connector-curvature="0"
       style="fill:#5091cd" />
    <path
       d="m 205.5,680.3 c 0,0 0.5,-2.1 0.5,-3.9 0,-1.8 -0.8,-8 -0.8,-10.7 0,-2.8 0.3,-7.8 2.4,-11.3 0,0 0,3 0.7,4.4 0.7,1.4 1.5,6.8 1.5,7.5 0,0.7 -0.2,5.3 -1.4,7.7 0,0 0.9,-0.5 1.8,-2.2 0.9,-1.9 3.2,-5.2 6.7,-8.7 3.5,-3.5 4.3,-6.7 4.3,-6.7 0,0 0.8,6.1 -3.7,12.6 -4.5,6.5 -6.4,5.4 -8.8,8 0,0 -2.9,3.5 -3.2,3.3 z"
       class="g0_6"
       id="path855"
       inkscape:connector-curvature="0"
       style="fill:#5091cd" />
    <path
       d="m 212.6,665.5 c 0,0 -0.2,-3.7 -0.9,-4.9 -0.7,-1.2 -4.7,-8.6 -3.9,-18.1 0,0 0.7,-0.6 2,3.1 1.2,3.7 3,4.8 3.6,8.4 0.6,3.7 0.6,5.2 0.6,5.2 0,0 0.5,0.5 0.5,0.1 0,-0.4 0.4,-5.4 2.4,-9.9 2.1,-4.5 4.8,-8.8 4.5,-11.8 0,0 1.2,0.1 1.1,5 -0.2,4.9 -1.5,13.3 -9.9,22.9 z"
       class="g0_6"
       id="path857"
       inkscape:connector-curvature="0"
       style="fill:#5091cd" />
    <path
       d="m 214.8,650.6 c 0,0 -1.5,-3.4 -2.5,-4.5 -1,-1.1 -8.1,-11.4 -8.7,-16.1 0,0 0.6,-0.3 1.3,0.8 0.7,1.2 4.1,4.6 4.7,5.1 0.6,0.6 4.2,4.4 4.5,8.5 0,0 0.4,0.4 -0.3,-6.4 -0.7,-6.8 2.2,-11.2 -0.2,-16 0,0 3.3,0.5 5.1,14.5 0,0 -0.1,4.9 -2.6,11 0,0 -0.9,3.1 -1.3,3.1 z"
       class="g0_6"
       id="path859"
       inkscape:connector-curvature="0"
       style="fill:#5091cd" />
    <path
       d="m 212.2,635.3 c 0,0 -2.6,-2.8 -4.8,-4 -2.1,-1.3 -8.7,-7.9 -9.9,-13 0,0 0.4,-0.6 2.5,2.2 1.7,2.2 3.4,1.1 8.2,7.3 0,0 0.7,1.3 1.1,1.2 0.3,0 -0.2,-1.4 -0.2,-1.4 0,0 -1,-3.8 -1.1,-5.2 0,-1.4 -2,-8.6 -2.7,-9.6 0,0 6.6,3.8 7.5,14.4 0,0 -0.2,7.6 -0.6,8.1 z"
       class="g0_6"
       id="path861"
       inkscape:connector-curvature="0"
       style="fill:#5091cd" />
    <path
       d="m 206.6,624 c 0,0 0.4,-9.2 -11.7,-13.9 0,0 4.2,8.6 7.4,10.7 3.1,2 4.3,3.2 4.3,3.2 z"
       class="g0_6"
       id="path863"
       inkscape:connector-curvature="0"
       style="fill:#5091cd" />
    <path
       d="m 175.6,711.5 c -4,-5.8 -15.8,-12 -27.5,-12 -11.6,0 -24.3,6.7 -29.3,3.1 0,0 5.1,4.5 15.4,4.5 10.3,0 14.3,-5.2 21.4,-5.2 7.2,0 14.8,5.8 17.9,10.6 z"
       class="g0_6"
       id="path865"
       inkscape:connector-curvature="0"
       style="fill:#5091cd" />
    <path
       d="m 138.8,698.6 c 0,0 -3.5,-2 -5.3,-5.8 -1.7,-3.7 -6.4,-9.7 -11.1,-13.4 0,0 5.2,16.8 10.7,17.5 0,0 0.9,0.5 -0.7,0.3 -1.5,-0.3 -8.5,-2.9 -11,-3.3 -2.4,-0.4 -8.5,-1.8 -10.1,-3.4 -1.4,-1.4 -2.3,-1.2 -2.3,-1.2 0,0 6.7,11.3 18.8,11.3 0,0 6,-0.5 11,-2 z"
       class="g0_6"
       id="path867"
       inkscape:connector-curvature="0"
       style="fill:#5091cd" />
    <path
       d="m 124.4,692.8 c 0,0 -1.3,-1.9 -1.5,-5.3 -0.3,-3.3 -2.3,-11 -8.1,-19.3 0,0 -0.9,13.2 5.7,21.3 0,0 0.4,1.2 -0.4,0.3 -0.9,-0.8 -5.1,-5.8 -14,-11.9 0,0 -4.7,-3.9 -5,-5.1 0,0 3.7,18.7 23.3,20 z"
       class="g0_6"
       id="path869"
       inkscape:connector-curvature="0"
       style="fill:#5091cd" />
    <path
       d="m 113.1,680.3 c 0,0 -0.5,-2.1 -0.5,-3.9 0,-1.8 0.7,-8 0.7,-10.7 0,-2.8 -0.2,-7.8 -2.4,-11.3 0,0 0,3 -0.6,4.4 -0.7,1.4 -1.5,6.8 -1.5,7.5 0,0.7 0.2,5.3 1.4,7.7 0,0 -0.9,-0.5 -1.8,-2.2 -1,-1.9 -3.3,-5.2 -6.8,-8.7 -3.4,-3.5 -4.2,-6.7 -4.2,-6.7 0,0 -0.9,6.1 3.7,12.6 4.5,6.5 6.3,5.4 8.8,8 0,0 2.8,3.5 3.2,3.3 z"
       class="g0_6"
       id="path871"
       inkscape:connector-curvature="0"
       style="fill:#5091cd" />
    <path
       d="m 106,665.5 c 0,0 0.2,-3.7 0.8,-4.9 0.7,-1.2 4.8,-8.6 4,-18.1 0,0 -0.7,-0.6 -2,3.1 -1.3,3.7 -3,4.8 -3.7,8.4 -0.6,3.7 -0.6,5.2 -0.6,5.2 0,0 -0.4,0.5 -0.4,0.1 0,-0.4 -0.4,-5.4 -2.5,-9.9 -2,-4.5 -4.7,-8.8 -4.5,-11.8 0,0 -1.2,0.1 -1,5 0.2,4.9 1.4,13.3 9.9,22.9 z"
       class="g0_6"
       id="path873"
       inkscape:connector-curvature="0"
       style="fill:#5091cd" />
    <path
       d="m 103.8,650.6 c 0,0 1.4,-3.4 2.5,-4.5 1,-1.1 8,-11.4 8.7,-16.1 0,0 -0.7,-0.3 -1.3,0.8 -0.7,1.2 -4.1,4.6 -4.7,5.1 -0.6,0.6 -4.2,4.4 -4.6,8.5 0,0 -0.3,0.4 0.4,-6.4 0.7,-6.8 -2.2,-11.2 0.2,-16 0,0 -3.4,0.5 -5.2,14.5 0,0 0.1,4.9 2.7,11 0,0 0.9,3.1 1.3,3.1 z"
       class="g0_6"
       id="path875"
       inkscape:connector-curvature="0"
       style="fill:#5091cd" />
    <path
       d="m 106.3,635.3 c 0,0 2.7,-2.8 4.8,-4 2.1,-1.3 8.8,-7.9 10,-13 0,0 -0.4,-0.6 -2.6,2.2 -1.6,2.2 -3.3,1.1 -8.1,7.3 0,0 -0.7,1.3 -1.1,1.2 -0.3,0 0.2,-1.4 0.2,-1.4 0,0 0.9,-3.8 1,-5.2 0.1,-1.4 2.1,-8.6 2.7,-9.6 0,0 -6.5,3.8 -7.4,14.4 0,0 0.2,7.6 0.5,8.1 z"
       class="g0_6"
       id="path877"
       inkscape:connector-curvature="0"
       style="fill:#5091cd" />
    <path
       d="m 112,624 c 0,0 -0.5,-9.2 11.6,-13.9 0,0 -4.1,8.6 -7.3,10.7 -3.1,2 -4.3,3.2 -4.3,3.2 z"
       class="g0_6"
       id="path879"
       inkscape:connector-curvature="0"
       style="fill:#5091cd" />
  </g>
  <!-- Any embedded fonts defined here -->
  <style
     type="text/css"
     id="style883"><![CDATA[

@font-face {
	font-family: RobotoSlab-Bold_ph;
	src: url("fonts/RobotoSlab-Bold_ph.woff") format("woff");
}

]]></style>
</svg>
